<?xml version="1.0" encoding="UTF-8" standalone="no"?>
<!DOCTYPE svg PUBLIC "-//W3C//DTD SVG 1.1//EN" "http://www.w3.org/Graphics/SVG/1.1/DTD/svg11.dtd">
<svg width="100%" height="100%" viewBox="0 0 229 259" version="1.1" xmlns="http://www.w3.org/2000/svg" xmlns:xlink="http://www.w3.org/1999/xlink" xml:space="preserve" xmlns:serif="http://www.serif.com/" style="fill-rule:evenodd;clip-rule:evenodd;stroke-linejoin:round;stroke-miterlimit:2;">
    <g transform="matrix(6.12323e-17,-1,1,6.12323e-17,-1917.81,1768.33)">
        <path d="M1596.44,2061.21C1588.19,2060.01 1581.84,2052.9 1581.84,2044.32L1581.84,2010.19C1581.84,2001.61 1588.19,1994.5 1596.44,1993.3L1596.44,2002.85C1596.44,2014.61 1606,2024.17 1617.76,2024.17L1660.4,2024.17C1672.17,2024.17 1681.73,2014.61 1681.73,2002.85L1681.73,1993.3C1689.98,1994.5 1696.33,2001.61 1696.33,2010.19L1696.33,2044.32C1696.33,2052.9 1689.98,2060.01 1681.73,2061.21L1681.73,2060.79C1681.73,2049.02 1672.17,2039.47 1660.4,2039.47L1617.76,2039.47C1606,2039.47 1596.44,2049.02 1596.44,2060.79L1596.44,2061.21Z" style="fill:rgb(255,255,255);"/>
    </g>
    <g transform="matrix(-9.85284e-17,0.536363,-0.486447,-8.93589e-17,1421.79,-742.44)">
        <path d="M1678.69,2483.57C1678.69,2467.28 1666.7,2454.06 1651.93,2454.06L1598.42,2454.06C1583.65,2454.06 1571.66,2467.28 1571.66,2483.57L1571.66,2579.39C1571.66,2595.67 1583.65,2608.89 1598.42,2608.89L1651.93,2608.89C1666.7,2608.89 1678.69,2595.67 1678.69,2579.39L1678.69,2483.57Z" style="fill:rgb(255,255,255);"/>
    </g>
    <g transform="matrix(-9.85284e-17,0.536363,-0.486447,-8.93589e-17,1269.09,-742.44)">
        <path d="M1678.69,2483.57C1678.69,2467.28 1666.7,2454.06 1651.93,2454.06L1598.42,2454.06C1583.65,2454.06 1571.66,2467.28 1571.66,2483.57L1571.66,2579.39C1571.66,2595.67 1583.65,2608.89 1598.42,2608.89L1651.93,2608.89C1666.7,2608.89 1678.69,2595.67 1678.69,2579.39L1678.69,2483.57Z" style="fill:rgb(255,255,255);"/>
    </g>
    <g transform="matrix(6.12323e-17,-1,1,6.12323e-17,-1917.81,1768.33)">
        <path d="M1746.68,1963.65C1758.63,1963.65 1768.33,1973.35 1768.33,1985.3L1768.33,2077.38C1768.33,2089.33 1758.63,2099.03 1746.68,2099.03L1703.38,2099.03C1691.43,2099.03 1681.73,2089.33 1681.73,2077.38L1681.73,1985.3C1681.73,1973.35 1691.43,1963.65 1703.38,1963.65L1746.68,1963.65ZM1739.38,1993.13L1710.68,1993.13C1702.76,1993.13 1696.33,1999.56 1696.33,2007.48L1696.33,2054.09C1696.33,2062.01 1702.76,2068.44 1710.68,2068.44L1739.38,2068.44C1747.3,2068.44 1753.73,2062.01 1753.73,2054.09L1753.73,2007.48C1753.73,1999.56 1747.3,1993.13 1739.38,1993.13Z" style="fill:rgb(255,255,255);"/>
    </g>
    <g transform="matrix(6.12323e-17,-1,1,6.12323e-17,-1917.81,1768.33)">
        <path d="M1574.79,1963.65C1586.74,1963.65 1596.44,1973.35 1596.44,1985.3L1596.44,2077.38C1596.44,2089.33 1586.74,2099.03 1574.79,2099.03L1531.49,2099.03C1519.54,2099.03 1509.84,2089.33 1509.84,2077.38L1509.84,1985.3C1509.84,1973.35 1519.54,1963.65 1531.49,1963.65L1574.79,1963.65ZM1567.49,1993.13L1538.79,1993.13C1530.87,1993.13 1524.44,1999.56 1524.44,2007.48L1524.44,2054.09C1524.44,2062.01 1530.87,2068.44 1538.79,2068.44L1567.49,2068.44C1575.41,2068.44 1581.84,2062.01 1581.84,2054.09L1581.84,2007.48C1581.84,1999.56 1575.41,1993.13 1567.49,1993.13Z" style="fill:rgb(255,255,255);"/>
    </g>
</svg>
